<?xml version="1.0" standalone="no"?>
<!DOCTYPE svg PUBLIC "-//W3C//DTD SVG 20010904//EN"
 "http://www.w3.org/TR/2001/REC-SVG-20010904/DTD/svg10.dtd">
<svg version="1.0" xmlns="http://www.w3.org/2000/svg"
 width="512.000000pt" height="512.000000pt" viewBox="0 0 512.000000 512.000000"
 preserveAspectRatio="xMidYMid meet">
<metadata>
Created by potrace 1.11, written by Peter Selinger 2001-2013
</metadata>
<g transform="translate(0.000000,512.000000) scale(0.100000,-0.100000)"
fill="#000000" stroke="none">
<path d="M2415 4480 c-22 -5 -53 -10 -70 -13 -75 -12 -171 -43 -280 -92 -187
-83 -365 -261 -464 -461 -34 -70 -81 -198 -81 -222 0 -11 -8 -18 -22 -19 -13
-1 -33 -14 -45 -28 -20 -23 -23 -37 -23 -119 0 -83 2 -95 23 -114 l22 -21 -1
-368 -1 -368 -42 -110 c-92 -235 -133 -381 -158 -565 -12 -87 -8 -390 5 -435
7 -22 15 -67 18 -100 3 -33 7 -65 9 -72 2 -7 -3 -38 -11 -70 -52 -194 -27
-276 89 -290 32 -4 53 -16 87 -49 25 -24 59 -48 75 -52 65 -18 126 21 167 108
13 26 36 56 51 66 87 58 63 140 -62 208 -53 29 -73 46 -81 69 -5 17 -8 32 -6
34 2 2 27 -16 56 -41 54 -46 175 -114 241 -135 33 -10 40 -21 82 -109 25 -53
53 -122 62 -152 10 -30 21 -62 25 -71 5 -10 2 -19 -9 -26 -24 -15 -49 -69 -56
-125 -5 -39 -3 -50 14 -67 12 -12 27 -21 34 -22 6 0 21 -3 32 -6 11 -3 61 -6
110 -7 84 0 95 2 168 37 l77 37 0 82 c0 79 1 83 33 116 30 31 32 37 29 95 -2
67 12 117 34 117 22 0 33 -42 33 -116 -1 -58 2 -69 25 -93 23 -24 26 -35 26
-107 0 -82 8 -106 34 -110 8 -1 41 -15 72 -30 31 -15 80 -30 109 -32 66 -5
191 15 210 35 31 30 10 139 -35 184 -15 16 -23 30 -18 31 5 2 21 37 34 78 14
41 42 111 63 156 l38 80 64 23 c96 35 169 74 242 130 36 28 64 45 63 38 -7
-39 -22 -56 -74 -84 -72 -40 -108 -71 -120 -103 -14 -39 4 -84 42 -111 21 -14
41 -40 50 -64 29 -74 100 -128 156 -118 32 5 56 22 97 63 22 22 46 35 79 41
107 20 140 97 103 237 -22 81 -26 179 -10 240 6 20 14 60 18 87 12 74 8 382
-5 445 -6 30 -14 71 -17 90 -13 81 -87 330 -105 355 -4 6 -10 19 -13 30 -3 11
-18 52 -33 90 l-27 70 -1 358 -2 359 33 33 32 33 -2 97 c-2 88 -5 99 -26 116
-13 11 -29 19 -37 19 -8 0 -20 24 -30 58 -23 81 -104 246 -157 321 -159 225
-396 370 -697 426 -53 10 -300 13 -345 5z m605 -3794 c0 -3 -4 -8 -10 -11 -5
-3 -10 -1 -10 4 0 6 5 11 10 11 6 0 10 -2 10 -4z"/>
</g>
</svg>
